<?xml version="1.0" encoding="UTF-8"?>
<svg viewBox="0 0 358.84842 789.3559" xmlns="http://www.w3.org/2000/svg" xmlns:xlink="http://www.w3.org/1999/xlink">
 <defs>
  <linearGradient id="a">
   <stop stop-color="#f8ce00" offset="0"/>
   <stop stop-color="#b79700" offset="1"/>
  </linearGradient>
  <linearGradient id="f" x1="165.02" x2="166.88" y1="1956.6" y2="2114.4" gradientTransform="scale(2.2804 .43853)" gradientUnits="userSpaceOnUse" xlink:href="#a"/>
  <radialGradient id="e" cx="657.76" cy="319.37" r="1269.3" gradientTransform="scale(.65803 1.5197)" gradientUnits="userSpaceOnUse" xlink:href="#a"/>
  <radialGradient id="b" cx="897.24" cy="153.65" r="15.849" gradientTransform="scale(.30015 3.3317)" gradientUnits="userSpaceOnUse" xlink:href="#a"/>
  <radialGradient id="d" cx="294.43" cy="598.63" r="91.234" gradientTransform="scale(1.464 .68308)" gradientUnits="userSpaceOnUse" xlink:href="#a"/>
  <radialGradient id="c" cx="378.79" cy="819.9" r="115.39" gradientTransform="scale(1.1166 .89553)" gradientUnits="userSpaceOnUse" xlink:href="#a"/>
 </defs>
 <g transform="translate(-185.33 -121.84)">
  <path d="m210.2 744.88h10.605a8.5849 8.5849 0 0 1 8.5849 8.5849v61.526a8.5849 8.5849 0 0 1 -8.5849 8.5849h-10.605a8.5849 8.5849 0 0 1 -8.5849 -8.5849v-61.526a8.5849 8.5849 0 0 1 8.5849 -8.5849" fill="#60585a" fill-rule="evenodd"/>
  <path d="m505.2 734.88h10.605a8.5849 8.5849 0 0 1 8.5849 8.5849v61.526a8.5849 8.5849 0 0 1 -8.5849 8.5849h-10.605a8.5849 8.5849 0 0 1 -8.5849 -8.5849v-61.526a8.5849 8.5849 0 0 1 8.5849 -8.5849" fill="#60585a" fill-rule="evenodd"/>
  <g transform="matrix(-1 0 0 -1 467.97 887.96)" fill="#4a00ad">
   <path d="m76.616,699.191c-5.4727-.321-11.1367-.388-16.567.34-3.5734.712-11.4734,3.767-7.655,8.677 5.2454,5.042 14.5306,4.269 21.1612,3.703l.5137,5.994c-9.1289.75-20.1652.992-26.8406-6.329-5.9809-9.521 3.3763-16.399 12.0254-18.017 5.7819-.733 11.5642-.349 17.3623-.688v6.32z"/>
   <path transform="matrix(1 0 0 -1 0 1430)" d="m76.616,699.191c-5.4727-.321-11.1367-.388-16.567.34-3.5734.712-11.4734,3.767-7.655,8.677 5.2454,5.042 14.5306,4.269 21.1612,3.703l.5137,5.994c-9.1289.75-20.1652.992-26.8406-6.329-5.9809-9.521 3.3763-16.399 12.0254-18.017 5.7819-.733 11.5642-.349 17.3623-.688v6.32z"/>
   <path transform="matrix(1.3776 0 0 1.3776 -36.308 -268.33)" d="m97.4725,715.314c-1.4986-.143-3.0393-.081-4.5417-.089-1.2715-.004-5.5397-.655-6.3316.724-.2793.983.196,2.108 1.022,2.657 2.002,1.029 4.7046.505 6.8526.402 2.6281-.126 6.1922-.416 6.9952,2.782 .249,2.611-1.378,5.115-3.4074,6.63-2.6849,1.651-5.7413,1.346-8.7364.969-1.7834-.237-3.5619-.51-5.3498-.711l.3288-2.76c1.7937.214 3.576.511 5.3666.748 2.19.268 4.7033.675 6.7086-.491 1.154-.815 2.2671-2.318 2.2757-3.791 .0105-1.097-3.415-.664-4.039-.633-2.8978.155-6.0482.623-8.678-.876-2.1183-1.588-3.0545-4.623-1.4109-6.885 2.1458-2.038 5.6768-1.512 8.4036-1.521 1.5024-.007 3.0431.055 4.5417-.088v2.933z"/>
   <g transform="matrix(1.166 0 0 1.0624 -26.21 -45.238)">
    <path d="m109.26,713.835c2.054.228 4.181.138 6.242.15 3.888.015 7.776-.017 11.665-.034 .779-.005 1.559-.011 2.338-.036v3.227c-.779-.026-1.559-.032-2.338-.037-3.889-.017-7.777-.049-11.665-.034-2.061.012-4.188-.078-6.242.15v-3.386z"/>
    <path transform="translate(1.3446 .33612)" d="m119.37,715.871c-.159,1.242-.079,2.551-.087,3.798-.011,2.488-.012,4.976.006,7.465 .012,1.648.028,3.296.032,4.944 .001.986-.002,1.973-.004,2.959h-3.321c-.002-.986-.005-1.973-.003-2.959 .003-1.648.019-3.296.031-4.944 .018-2.489.018-4.977.007-7.465-.009-1.247.072-2.556-.088-3.798h3.427z"/>
   </g>
   <path d="m129.455,713.855c-.219,1.706-.114,3.502-.134,5.217-.046,4.31-.051,8.621-.008,12.932 .017,1.411.038,2.823.066,4.234h-3.275c.027-1.411.049-2.823.066-4.234 .043-4.311.037-8.622-.008-12.932-.021-1.715.085-3.511-.134-5.217h3.427z"/>
   <path d="m127.413,712.827c1.41.156 2.863.074 4.28.113 3.027.138 5.689,1.021 6.086,4.411 .091,3.395-1.772,5.431-5.069,6.06-1.547.195-3.059.136-4.605-.029l.353-3.167c1.221.137 2.422.2 3.645.051 1.605-.296 2.418-.88 2.405-2.576-.124-1.535-1.597-1.488-2.895-1.55-1.383-.028-2.821-.081-4.2.073v-3.386z"/>
   <path d="m128.757,721.903c1.223.136 2.492.072 3.72.082 2.638.021 5.597-.184 7.788,1.535 1.853,1.96 1.215,4.372.521,6.696-.472,1.573-.874,3.118-.925,4.767-.003.322 0,.641.008.962l-3.305.084c-.01-.383-.013-.765-.009-1.148 .062-1.931.526-3.743 1.082-5.583 .252-.844.953-2.406.486-3.29-1.116-1.268-4.173-.813-5.646-.801-1.228.01-2.497-.054-3.72.082v-3.386z"/>
   <path d="m126.06 712.84h2.3531v3.0254h-2.3531z" fill-rule="evenodd"/>
   <path d="m165.39 724.77c0 6.958-5.196 12.606-11.598 12.606s-11.597-5.648-11.597-12.606 5.195-12.606 11.597-12.606 11.598 5.647 11.598 12.606zm-3.698-0.322c0 4.739-3.54 8.586-7.9 8.586s-7.9-3.847-7.9-8.586 3.539-8.587 7.9-8.587 7.9 3.846 7.9 8.587z" fill-rule="evenodd"/>
  </g>
  <path d="m512.7 219.88h10.605a8.5849 8.5849 0 0 1 8.5849 8.5849v61.526a8.5849 8.5849 0 0 1 -8.5849 8.5849h-10.605a8.5849 8.5849 0 0 1 -8.5849 -8.5849v-61.526a8.5849 8.5849 0 0 1 8.5849 -8.5849" fill="#60585a" fill-rule="evenodd"/>
  <path d="m202.54 222.96h10.605a8.5849 8.5849 0 0 1 8.5849 8.5849v61.526a8.5849 8.5849 0 0 1 -8.5849 8.5849h-10.605a8.5849 8.5849 0 0 1 -8.5849 -8.5849v-61.526a8.5849 8.5849 0 0 1 8.5849 -8.5849" fill="#60585a" fill-rule="evenodd"/>
  <path transform="translate(-66.817 10.022)" d="m430.87 894.8c-113.07 2.362-130.4-17.92-147.11-21.261-16.705-38.776-19.877-365.73-9.855-392.46 7.493-60.54-4.936-70.565-8.687-143.53-7.14-85.213 9.815-37.829-4.439-124.48 21.658-90.216-19.136-92.053 168.52-100.63 172.21 2.401 147.96 10.415 169.61 100.63-14.254 86.652 2.701 39.268-4.439 124.48-3.751 72.961-16.18 82.986-8.687 143.53 10.022 26.727 6.85 353.68-9.855 392.46-26.153 15.153-95.459 21.261-145.07 21.261z" fill="url(#e)" fill-rule="evenodd" stroke="#000" stroke-width="1.25"/>
  <path d="m202.24 566.68h322.03v25.056h-322.03z" fill="#a4250e" fill-rule="evenodd"/>
  <path d="m202.96 533.46h319.88v25.056h-319.88z" fill="#148f84" fill-rule="evenodd"/>
  <path transform="matrix(1.3022 0 0 1.0906 -157.67 -40.631)" d="m295.29 407.45 16.536 75.595s0 141.74-2.362 144.1-21.261 42.521-21.261 42.521 4.724-257.49 7.087-262.22z" fill="url(#b)" fill-rule="evenodd"/>
  <path transform="matrix(-1.3022 0 0 1.0906 888.7 -45.631)" d="m295.29 407.45 16.536 75.595s0 141.74-2.362 144.1-21.261 42.521-21.261 42.521 4.724-257.49 7.087-262.22z" fill="url(#b)" fill-rule="evenodd"/>
  <path transform="translate(-66.817 10.022)" d="m289.34 156.34c-11.667 18.667-10.816 196.22 7.851 210.22 18.03-14.851 122.48-28.646 142.34-27.364 20.288-1.492 99.694 8.055 124.09 22.697 6.577 2.13 19.727-205.55 1.059-219.55-58.335-16.333-252.01-16.333-275.34 14.001z" fill="#f7ce00" fill-rule="evenodd" stroke="#000" stroke-opacity=".45912" stroke-width="1.25"/>
  <path transform="matrix(1.0274 0 0 1.0862 -78.716 -24.868)" d="m297.65 372.01s63.783-24.762 134.95-25.395c64.078-0.59 93.017 8.859 132 23.033-4.724 44.885-9.449 87.405-21.261 101.58-108.67-25.986-115.75-25.985-224.42 1e-3 -2.362-14.174-23.623-96.856-21.261-99.218z" fill="url(#d)" fill-rule="evenodd"/>
  <path transform="translate(-66.817 10.022)" d="m297.65 372.01s63.783-24.762 134.95-25.395c64.078-0.59 93.017 8.859 132 23.033-4.724 44.885-9.449 87.405-21.261 101.58-108.67-25.986-115.75-25.985-224.42 1e-3 -2.362-14.174-23.623-96.856-21.261-99.218z" fill-opacity=".7044" fill-rule="evenodd" stroke="#000" stroke-width="1.25"/>
  <path transform="matrix(1.0472 0 0 1.0472 -87.77 -25.711)" d="m333.09 648.4c-11.812 56.695-21.261 165.36-21.261 165.36 18.899 16.536 115.75 23.623 118.12 23.623 7.087 0 103.94-7.087 120.48-30.71 0-14.174-9.45-115.75-18.899-160.64-82.681 11.811-193.71 7.087-198.44 2.362z" fill="url(#c)" fill-rule="evenodd"/>
  <path transform="translate(-66.817 10.022)" d="m333.09 648.4c-11.812 56.695-21.261 165.36-21.261 165.36 18.899 16.536 115.75 23.623 118.12 23.623 7.087 0 103.94-7.087 120.48-30.71 0-14.174-9.45-115.75-18.899-160.64-82.681 11.811-193.71 7.087-198.44 2.362z" fill-opacity=".78616" fill-rule="evenodd" stroke="#000" stroke-width="1.25"/>
  <path transform="translate(-66.817 10.022)" d="m574.04 390.91 28.348 2.362s14.174 14.174 4.725 21.261-33.073-2.362-33.073-2.362v-21.261z" fill="#f7ce00" fill-rule="evenodd" stroke="#000" stroke-opacity=".55346" stroke-width="1.25"/>
  <path transform="matrix(-1 0 0 1 792.24 12.356)" d="m307.235,893.185c-6.377-10.271-8.107-21.955-9.449-31.448-.65-8.051-2.258-12.158-.133-21.984 1.181-7.087 4.582-8.254 10.04-6.496 4.414,2.717 2.363,4.134 1.772,18.308-4.651,21.068-.398,45.575-2.23,41.62z" fill="#deb500" fill-rule="evenodd"/>
  <path transform="matrix(-1 0 0 1 796.32 14.747)" d="m574.04 390.91 28.348 2.362s14.174 14.174 4.725 21.261-33.073-2.362-33.073-2.362v-21.261z" fill="#f7ce00" fill-rule="evenodd" stroke="#000" stroke-opacity=".54717" stroke-width="1.25"/>
  <path transform="translate(-66.817 10.022)" d="m307.235,893.185c-6.377-10.271-8.107-21.955-9.449-31.448-.65-8.051-2.258-12.158-.133-21.984 1.181-7.087 4.582-8.254 10.04-6.496 4.414,2.717 2.363,4.134 1.772,18.308-4.651,21.068-.398,45.575-2.23,41.62z" fill="#deb500" fill-rule="evenodd"/>
  <path d="m250.78 863.95h224.68a10.499 10.499 0 0 1 10.499 10.499v26.248a10.499 10.499 0 0 1 -10.499 10.499h-224.68a10.499 10.499 0 0 1 -10.499 -10.499v-26.248a10.499 10.499 0 0 1 10.499 -10.499" fill="url(#f)" fill-rule="evenodd"/>
  <path transform="matrix(-1 0 0 1 798.02 17.023)" d="m576.35 415.34c2.333 25.667 9.333 452.68-4.666 443.34" fill="none" stroke="#000" stroke-width="1.25"/>
  <path transform="translate(-66.817 10.022)" d="m357.259,138.219c-10.004.593-13.704,2.203-13.704,3.913l.546,43.034c0,1.71 1.376,3.086 3.086,3.086h163.564c1.71,0 3.086-1.376 3.086-3.086v-43.58c-2.182-2.255-.799-4.608-12.019-4.848-26.422-1.723-45.095-2.713-73.589-2.659-20.991.049-49.777,1.035-70.97,4.14z" fill="#ce231c" fill-rule="evenodd"/>
  <g fill="#9d0000">
   <path transform="translate(-15.89 -81.367)" d="m280.488,961.018c-.304,6.833 3.077,11.388 8.715,15.018 12.736,6.317 24.561,2.968 35.815-4.562 4.905-3.184 12.295,5 17.718,6.594 8.813,1.807 23.561.847 25.502-10.397-.059-2.654-1.061-4.243-2.886-6.124l1.676-2.467c2.727,2.854 3.898,5.403 3.79,9.376-2.785,12.855-17.792,14.737-28.639,12.574-4.374-1.235-12.521-8.631-15.943-6.651-12.257,7.538-24.545,10.908-38.148,4.348-6.944-4.348-10.117-9.658-10.475-17.709h2.875z"/>
   <path transform="translate(-22.866 -72.995)" d="m385.825,972.248c-.347,1.787 1.018-3.497 1.487-5.256 1.12-4.202 1.908-8.481 3.191-12.638 3.305-7.936 13.54-11.744 19.611-4.112 2.728,5.945-6.487,9.134-4.608,12.716 5.982,8.124 20.55,9.662 29.668,10.375 4.488.127 8.718-.131 13.096-1.153l.446,3.04c-4.584.992-9.013,1.236-13.696,1.075-10.033-.811-25.942-2.513-32.011-11.914-1.944-5.934 6.269-7.752 5.101-11.859-4.159-6.342-12.735-2.585-15.15,3.002-1.783,5.68-3.43,11.884-4.39,17.774l-2.745-1.05z"/>
   <path transform="translate(-37.516 -77.879)" d="m488.324,957.173c-3.992-.257-7.117.857-10.297,3.334-5.826,5.448-10.689,12.681-.946,16.073 8.574,2.07 16.965,1.532 25.496-.506l.435,2.824c-8.886,2.07-17.638,2.648-26.595.696-12.691-4.154-7.096-14.964.218-21.817 3.734-2.922 7.11-3.872 11.689-4.166v3.562z"/>
  </g>
  <path transform="matrix(1.4773 0 0 .79251 -205.04 35.32)" d="m299.85 130.65c-6.108 1.985-13.078 23.971-9.872 27.636 7.636-7.178 22.56-17.042 37.22-19.791 2.901-2.902 6.86-11.805 7.013-13.79-10.078-1.069-27.698 3.502-34.361 5.945z" fill="#2e87cf" fill-opacity=".56604" fill-rule="evenodd" stroke="#000" stroke-opacity=".25157" stroke-width="1.25"/>
  <path transform="matrix(-1.4773 0 0 .79251 926.97 30.41)" d="m299.85 130.65c-6.108 1.985-13.078 18.464-9.872 22.129 7.636-7.178 22.56-9.47 37.22-12.219 2.901-2.902 6.86-13.87 7.013-15.855-10.078-1.069-27.698 3.502-34.361 5.945z" fill="#2e87cf" fill-opacity=".56604" fill-rule="evenodd" stroke="#000" stroke-opacity=".25157" stroke-width="1.25"/>
  <path transform="translate(-66.817 10.022)" d="m364.43 122.2c37.098-6.547 99.837-6.002 126.57-2.729" fill="none" stroke="#000" stroke-opacity=".37107" stroke-width="1.25"/>
  <path transform="translate(-66.817 12.75)" d="m364.43 122.2c37.098-6.547 99.837-6.002 126.57-2.729" fill="none" stroke="#000" stroke-opacity=".37107" stroke-width="1.25"/>
  <path transform="translate(-66.817 16.024)" d="m364.43 122.2c37.098-6.547 99.837-6.002 126.57-2.729" fill="none" stroke="#000" stroke-opacity=".37107" stroke-width="1.25"/>
  <path transform="translate(-66.817 19.842)" d="m364.43 122.2c37.098-6.001 98.2-4.911 124.39-3.275" fill="none" stroke="#000" stroke-opacity=".37107" stroke-width="1.25"/>
  <path transform="translate(-66.817 10.022)" d="m295.29 407.45 16.536 75.595s0 141.74-2.362 144.1-21.261 42.521-21.261 42.521 4.724-257.49 7.087-262.22z" fill-opacity=".68554" fill-rule="evenodd" stroke="#000" stroke-width="1.25"/>
  <path transform="translate(-66.817 10.022)" d="m576.35 415.34c2.333 25.667 9.333 452.68-4.666 443.34" fill="none" stroke="#000" stroke-width="1.25"/>
  <path transform="translate(-57.523 .72842)" d="m350.151,528.344c-.575,3.672-.343,7.605-.544,11.305-.855,12.255-2.838,24.436-5.494,36.425-.651,2.819-1.338,5.621-2.114,8.408l-8.533-4.041c.826-2.472 1.544-4.967 2.222-7.484 2.82-11.046 4.699-22.379 5.032-33.787 .048-3.52.283-7.321-.265-10.826h9.696z"/>
  <path transform="translate(-57.523 .72842)" d="m332.32 577.19c7.483-5.628 18.352-8.396 26.799-12.27 9.285-4.275 18.545-8.599 27.958-12.59l2.602 10.599c-9.493 3.22-18.663 7.264-27.789 11.393-5.595 2.566-11.221 5.098-16.649 8.009-1.439 0.772-7.321 4.619-6.875 4.268l-6.046-9.409z"/>
  <path transform="translate(-57.523 .72842)" d="m374.458,550.507c-.688,5.009-.909,10.036-.975,15.098 .028,11.027.67,22.009 2.087,32.946l-8.215,1.552c-1.302-11.446-1.987-22.914-2.397-34.424-.089-3.808.014-13.639-.196-15.172h9.696z"/>
  <path transform="translate(-57.523 .72842)" d="m488.129,494.743c-.887,6.466-7.269,8.699-12.394,11.637-5.047,2.834-10.339,5.179-15.563,7.663l-3.014-9.997c5.05-2.338 9.998-4.779 14.793-7.609 1.784-1.092 3.576-2.178 5.296-3.372 .846-.587 3.107-2.684 2.427-1.911-.836.951-1.069,4.844-1.241,3.589h9.696z"/>
  <path transform="translate(-57.523 -2.1311)" d="m460.25 536.47c9.175-7.531 26.687-2.288 35.502 2.023 34.376 22.244 47.082 64.283 1.661 82.551-53.805 14.273-116.67 8.554-169.83-6.542l1.213-5.729c51.344 19.345 114.72 25.249 167.04 6.86 35.731-18.159 28.744-49.862-2.557-68.953-6.2-2.767-12.009-4.618-18.817-3.275-1.809 0.357-9.833 3.907-8.155 2.498l-6.061-9.433z"/>
  <path transform="translate(-57.523 .72842)" d="m458.817,502.61c-.393,2.519 1.619,4.835 2.428,7.253 2.972,9.109 4.523,18.383 5.807,27.855 .247,1.903.478,3.805.673,5.714l-9.155,1.152c-.098-1.737-.243-3.466-.408-5.197-.897-8.537-2.245-16.84-5.175-24.937-1.498-3.927-3.216-7.682-3.865-11.84h9.695z"/>
  <path transform="matrix(-1 0 0 1 797.8 5.2978)" d="m295.29 407.45 16.536 75.595s0 141.74-2.362 144.1-21.261 42.521-21.261 42.521 4.724-257.49 7.087-262.22z" fill-opacity=".74843" fill-rule="evenodd" stroke="#000" stroke-width="1.25"/>
  <path transform="translate(-66.817 10.022)" d="m469.7 541.2c0 21.311-17.135 38.606-38.248 38.606s-38.248-17.295-38.248-38.606 17.135-38.605 38.248-38.605 38.248 17.295 38.248 38.605zm-10.749-1.655c0 15.926-12.806 28.851-28.584 28.851s-28.583-12.925-28.583-28.851 12.805-28.851 28.583-28.851 28.584 12.925 28.584 28.851z" fill-rule="evenodd"/>
  <path transform="matrix(.95948,-.28178,.28178,.95948,0,0)" d="m328.79 368.39h6.9763v34.184h-6.9763z" fill-rule="evenodd"/>
  <path transform="matrix(-.99926 .038452 -.039629 -1.0298 710.6 319.99)" d="m339.01 49.276a15.697 17.092 0 1 1 -4.7412 -13.424l-10.92 12.278z" fill-rule="evenodd"/>
  <g transform="matrix(-.94103 -.33833 .33833 -.94103 641.62 455.16)" fill-rule="evenodd">
   <path transform="rotate(10.669)" d="m379-40.28h6.9763v34.184h-6.9763z"/>
   <path transform="matrix(.98311,-.183,.18659,.98244,0,0)" d="m370.7 101.58h6.9739v33.854h-6.9739z"/>
   <path d="m380.21 30.34h10.116v4.5346h-10.116z"/>
   <path d="m380.55 50.222h10.116v3.1393h-10.116z"/>
  </g>
  <g transform="matrix(-.9979 -.06481 .06481 -.9979 690.06 353.72)" fill-rule="evenodd">
   <path d="m343.23 30.689h6.9763v34.184h-6.9763z"/>
   <path d="m344.98 30.689h16.394v5.2322h-16.394z"/>
   <path d="m344.98 45.688h18.487v4.8834h-18.487z"/>
   <path d="m344.98 59.64h20.231v5.2322h-20.231z"/>
  </g>
  <g transform="matrix(-.89883 .43829 -.43829 -.89883 733.7 185.57)" fill-rule="evenodd">
   <path d="m265.1 31.038h6.9763v34.184h-6.9763z"/>
   <path d="m269.808,31.2909c6.977-1.3653 13.81,2.8827 15.253,9.482s-3.047,13.0633-10.023,14.4286c-1.643.3214-3.091.3475-4.745.0857m.562-19.2158c4.468-.8159 8.844,1.7228 9.769,5.6667 .924,3.944-1.952,7.807-6.42,8.623-1.052.1921-1.98.2077-3.039.0512"/>
  </g>
  <g transform="matrix(-.80412 -.59447 .59447 -.80412 562.47 547.88)" fill-rule="evenodd">
   <path d="m403.93 30.689h6.9763v25.812h-6.9763z"/>
   <path d="m419.27 30.689h6.9763v25.463h-6.9763z"/>
   <path d="m426.25 55.629c0 5.1024-5.001 9.2435-11.162 9.2435-5.974 0-10.864-3.8611-11.149-8.8031m15.154-0.0918c0 1.7439-1.833 3.1593-4.091 3.1593-2.191 0-3.983-1.3197-4.087-3.0088"/>
  </g>
  <path transform="translate(-18.68 -80.669)" d="m280.488,961.018c-.304,6.833 3.077,11.388 8.715,15.018 12.736,6.317 24.561,2.968 35.815-4.562 4.905-3.184 12.295,5 17.718,6.594 8.813,1.807 23.561.847 25.502-10.397-.059-2.654-1.061-4.243-2.886-6.124l1.676-2.467c2.727,2.854 3.898,5.403 3.79,9.376-2.785,12.855-17.792,14.737-28.639,12.574-4.374-1.235-12.521-8.631-15.943-6.651-12.257,7.538-24.545,10.908-38.148,4.348-6.944-4.348-10.117-9.658-10.475-17.709h2.875z"/>
  <path transform="translate(-25.657 -72.298)" d="m385.825,972.248c-.347,1.787 1.018-3.497 1.487-5.256 1.12-4.202 1.908-8.481 3.191-12.638 3.305-7.936 13.54-11.744 19.611-4.112 2.728,5.945-6.487,9.134-4.608,12.716 5.982,8.124 20.55,9.662 29.668,10.375 4.488.127 8.718-.131 13.096-1.153l.446,3.04c-4.584.992-9.013,1.236-13.696,1.075-10.033-.811-25.942-2.513-32.011-11.914-1.944-5.934 6.269-7.752 5.101-11.859-4.159-6.342-12.735-2.585-15.15,3.002-1.783,5.68-3.43,11.884-4.39,17.774l-2.745-1.05z"/>
  <path transform="translate(-40.307 -77.181)" d="m488.324,957.173c-3.992-.257-7.117.857-10.297,3.334-5.826,5.448-10.689,12.681-.946,16.073 8.574,2.07 16.965,1.532 25.496-.506l.435,2.824c-8.886,2.07-17.638,2.648-26.595.696-12.691-4.154-7.096-14.964.218-21.817 3.734-2.922 7.11-3.872 11.689-4.166v3.562z"/>
  <g transform="matrix(-1 0 0 -1 464.96 887.36)" fill="#4a00ad">
   <path d="m76.616,699.191c-5.4727-.321-11.1367-.388-16.567.34-3.5734.712-11.4734,3.767-7.655,8.677 5.2454,5.042 14.5306,4.269 21.1612,3.703l.5137,5.994c-9.1289.75-20.1652.992-26.8406-6.329-5.9809-9.521 3.3763-16.399 12.0254-18.017 5.7819-.733 11.5642-.349 17.3623-.688v6.32z"/>
   <path transform="matrix(1 0 0 -1 0 1430)" d="m76.616,699.191c-5.4727-.321-11.1367-.388-16.567.34-3.5734.712-11.4734,3.767-7.655,8.677 5.2454,5.042 14.5306,4.269 21.1612,3.703l.5137,5.994c-9.1289.75-20.1652.992-26.8406-6.329-5.9809-9.521 3.3763-16.399 12.0254-18.017 5.7819-.733 11.5642-.349 17.3623-.688v6.32z"/>
   <path transform="matrix(1.3776 0 0 1.3776 -36.308 -268.33)" d="m97.4725,715.314c-1.4986-.143-3.0393-.081-4.5417-.089-1.2715-.004-5.5397-.655-6.3316.724-.2793.983.196,2.108 1.022,2.657 2.002,1.029 4.7046.505 6.8526.402 2.6281-.126 6.1922-.416 6.9952,2.782 .249,2.611-1.378,5.115-3.4074,6.63-2.6849,1.651-5.7413,1.346-8.7364.969-1.7834-.237-3.5619-.51-5.3498-.711l.3288-2.76c1.7937.214 3.576.511 5.3666.748 2.19.268 4.7033.675 6.7086-.491 1.154-.815 2.2671-2.318 2.2757-3.791 .0105-1.097-3.415-.664-4.039-.633-2.8978.155-6.0482.623-8.678-.876-2.1183-1.588-3.0545-4.623-1.4109-6.885 2.1458-2.038 5.6768-1.512 8.4036-1.521 1.5024-.007 3.0431.055 4.5417-.088v2.933z"/>
   <g transform="matrix(1.166 0 0 1.0624 -26.21 -45.238)">
    <path d="m109.26,713.835c2.054.228 4.181.138 6.242.15 3.888.015 7.776-.017 11.665-.034 .779-.005 1.559-.011 2.338-.036v3.227c-.779-.026-1.559-.032-2.338-.037-3.889-.017-7.777-.049-11.665-.034-2.061.012-4.188-.078-6.242.15v-3.386z"/>
    <path transform="translate(1.3446 .33612)" d="m119.37,715.871c-.159,1.242-.079,2.551-.087,3.798-.011,2.488-.012,4.976.006,7.465 .012,1.648.028,3.296.032,4.944 .001.986-.002,1.973-.004,2.959h-3.321c-.002-.986-.005-1.973-.003-2.959 .003-1.648.019-3.296.031-4.944 .018-2.489.018-4.977.007-7.465-.009-1.247.072-2.556-.088-3.798h3.427z"/>
   </g>
   <path d="m129.455,713.855c-.219,1.706-.114,3.502-.134,5.217-.046,4.31-.051,8.621-.008,12.932 .017,1.411.038,2.823.066,4.234h-3.275c.027-1.411.049-2.823.066-4.234 .043-4.311.037-8.622-.008-12.932-.021-1.715.085-3.511-.134-5.217h3.427z"/>
   <path d="m127.413,712.827c1.41.156 2.863.074 4.28.113 3.027.138 5.689,1.021 6.086,4.411 .091,3.395-1.772,5.431-5.069,6.06-1.547.195-3.059.136-4.605-.029l.353-3.167c1.221.137 2.422.2 3.645.051 1.605-.296 2.418-.88 2.405-2.576-.124-1.535-1.597-1.488-2.895-1.55-1.383-.028-2.821-.081-4.2.073v-3.386z"/>
   <path d="m128.757,721.903c1.223.136 2.492.072 3.72.082 2.638.021 5.597-.184 7.788,1.535 1.853,1.96 1.215,4.372.521,6.696-.472,1.573-.874,3.118-.925,4.767-.003.322 0,.641.008.962l-3.305.084c-.01-.383-.013-.765-.009-1.148 .062-1.931.526-3.743 1.082-5.583 .252-.844.953-2.406.486-3.29-1.116-1.268-4.173-.813-5.646-.801-1.228.01-2.497-.054-3.72.082v-3.386z"/>
   <path d="m126.06 712.84h2.3531v3.0254h-2.3531z" fill-rule="evenodd"/>
   <path d="m165.39 724.77c0 6.958-5.196 12.606-11.598 12.606s-11.597-5.648-11.597-12.606 5.195-12.606 11.597-12.606 11.598 5.647 11.598 12.606zm-3.698-0.322c0 4.739-3.54 8.586-7.9 8.586s-7.9-3.847-7.9-8.586 3.539-8.587 7.9-8.587 7.9 3.846 7.9 8.587z" fill-rule="evenodd"/>
  </g>
  <g transform="matrix(-1 0 0 -1 466.63 887.62)" fill="#fff">
   <path d="m76.616,699.191c-5.4727-.321-11.1367-.388-16.567.34-3.5734.712-11.4734,3.767-7.655,8.677 5.2454,5.042 14.5306,4.269 21.1612,3.703l.5137,5.994c-9.1289.75-20.1652.992-26.8406-6.329-5.9809-9.521 3.3763-16.399 12.0254-18.017 5.7819-.733 11.5642-.349 17.3623-.688v6.32z"/>
   <path transform="matrix(1 0 0 -1 0 1430)" d="m76.616,699.191c-5.4727-.321-11.1367-.388-16.567.34-3.5734.712-11.4734,3.767-7.655,8.677 5.2454,5.042 14.5306,4.269 21.1612,3.703l.5137,5.994c-9.1289.75-20.1652.992-26.8406-6.329-5.9809-9.521 3.3763-16.399 12.0254-18.017 5.7819-.733 11.5642-.349 17.3623-.688v6.32z"/>
   <path transform="matrix(1.3776 0 0 1.3776 -36.308 -268.33)" d="m97.4725,715.314c-1.4986-.143-3.0393-.081-4.5417-.089-1.2715-.004-5.5397-.655-6.3316.724-.2793.983.196,2.108 1.022,2.657 2.002,1.029 4.7046.505 6.8526.402 2.6281-.126 6.1922-.416 6.9952,2.782 .249,2.611-1.378,5.115-3.4074,6.63-2.6849,1.651-5.7413,1.346-8.7364.969-1.7834-.237-3.5619-.51-5.3498-.711l.3288-2.76c1.7937.214 3.576.511 5.3666.748 2.19.268 4.7033.675 6.7086-.491 1.154-.815 2.2671-2.318 2.2757-3.791 .0105-1.097-3.415-.664-4.039-.633-2.8978.155-6.0482.623-8.678-.876-2.1183-1.588-3.0545-4.623-1.4109-6.885 2.1458-2.038 5.6768-1.512 8.4036-1.521 1.5024-.007 3.0431.055 4.5417-.088v2.933z"/>
   <g transform="matrix(1.166 0 0 1.0624 -26.21 -45.238)">
    <path d="m109.26,713.835c2.054.228 4.181.138 6.242.15 3.888.015 7.776-.017 11.665-.034 .779-.005 1.559-.011 2.338-.036v3.227c-.779-.026-1.559-.032-2.338-.037-3.889-.017-7.777-.049-11.665-.034-2.061.012-4.188-.078-6.242.15v-3.386z"/>
    <path transform="translate(1.3446 .33612)" d="m119.37,715.871c-.159,1.242-.079,2.551-.087,3.798-.011,2.488-.012,4.976.006,7.465 .012,1.648.028,3.296.032,4.944 .001.986-.002,1.973-.004,2.959h-3.321c-.002-.986-.005-1.973-.003-2.959 .003-1.648.019-3.296.031-4.944 .018-2.489.018-4.977.007-7.465-.009-1.247.072-2.556-.088-3.798h3.427z"/>
   </g>
   <path d="m129.455,713.855c-.219,1.706-.114,3.502-.134,5.217-.046,4.31-.051,8.621-.008,12.932 .017,1.411.038,2.823.066,4.234h-3.275c.027-1.411.049-2.823.066-4.234 .043-4.311.037-8.622-.008-12.932-.021-1.715.085-3.511-.134-5.217h3.427z"/>
   <path d="m127.413,712.827c1.41.156 2.863.074 4.28.113 3.027.138 5.689,1.021 6.086,4.411 .091,3.395-1.772,5.431-5.069,6.06-1.547.195-3.059.136-4.605-.029l.353-3.167c1.221.137 2.422.2 3.645.051 1.605-.296 2.418-.88 2.405-2.576-.124-1.535-1.597-1.488-2.895-1.55-1.383-.028-2.821-.081-4.2.073v-3.386z"/>
   <path d="m128.757,721.903c1.223.136 2.492.072 3.72.082 2.638.021 5.597-.184 7.788,1.535 1.853,1.96 1.215,4.372.521,6.696-.472,1.573-.874,3.118-.925,4.767-.003.322 0,.641.008.962l-3.305.084c-.01-.383-.013-.765-.009-1.148 .062-1.931.526-3.743 1.082-5.583 .252-.844.953-2.406.486-3.29-1.116-1.268-4.173-.813-5.646-.801-1.228.01-2.497-.054-3.72.082v-3.386z"/>
   <path d="m126.06 712.84h2.3531v3.0254h-2.3531z" fill-rule="evenodd"/>
   <path d="m165.39 724.77c0 6.958-5.196 12.606-11.598 12.606s-11.597-5.648-11.597-12.606 5.195-12.606 11.597-12.606 11.598 5.647 11.598 12.606zm-3.698-0.322c0 4.739-3.54 8.586-7.9 8.586s-7.9-3.847-7.9-8.586 3.539-8.587 7.9-8.587 7.9 3.846 7.9 8.587z" fill-rule="evenodd"/>
  </g>
  <path transform="matrix(-1 0 0 1 777.84 -2.352)" d="m305.82 327.58c-5.303-12.375 28.284-139.65 38.891-150.26 10.607-5.303 51.265-8.839 51.265-8.839-5.303 26.516-33.587 123.74-42.427 134.35-17.677 10.607-31.82 21.213-47.729 24.749z" fill="none" stroke="#000" stroke-opacity=".19497" stroke-width="1.25"/>
  <path transform="translate(-54.442 -2.352)" d="m305.82 327.58c-5.303-12.375 28.284-139.65 38.891-150.26 10.607-5.303 51.265-8.839 51.265-8.839-5.303 26.516-33.587 123.74-42.427 134.35-17.677 10.607-31.82 21.213-47.729 24.749z" fill="none" stroke="#000" stroke-opacity=".19497" stroke-width="1.25"/>
 </g>
</svg>
